REM DIRINDEX 1\2\6,1\2\7,1\2\8,1\3\9,1\3\10,1\3\11,1\4\12,1\4\13,1\4\14,1\5\15,1\5\16,1\5\17,1\5\18
REM DIRNAME folder01,folder02,folder03,folder04,folder05,folder06,folder07,folder08,folder09,folder10,folder11,folder12,folder13,folder14,folder15,folder16,folder17,folder18
TITLE ""
FILE "" MP3
  TRACK 01 AUDIO
    TITLE "16:cjc019_4529"
    INDEX 01 00:00:00
  TRACK 02 AUDIO
    TITLE "0:"
    INDEX 01 00:00:66
  TRACK 03 AUDIO
    TITLE "18:cjc019_4530"
    INDEX 01 00:01:46
  TRACK 04 AUDIO
    TITLE "0:"
    INDEX 01 00:04:46
  TRACK 05 AUDIO
    TITLE "17:cjc019_4531"
    INDEX 01 00:05:20
  TRACK 06 AUDIO
    TITLE "0:"
    INDEX 01 00:06:31
  TRACK 07 AUDIO
    TITLE "16:cjc019_4532"
    INDEX 01 00:08:13
  TRACK 08 AUDIO
    TITLE "0:"
    INDEX 01 00:09:14
  TRACK 09 AUDIO
    TITLE "18:cjc019_4533"
    INDEX 01 00:09:73
  TRACK 10 AUDIO
    TITLE "0:"
    INDEX 01 00:13:30
  TRACK 11 AUDIO
    TITLE "17:cjc019_4534"
    INDEX 01 00:14:07
  TRACK 12 AUDIO
    TITLE "0:"
    INDEX 01 00:15:11
  TRACK 13 AUDIO
    TITLE "16:cjc019_4535"
    INDEX 01 00:16:69
  TRACK 14 AUDIO
    TITLE "0:"
    INDEX 01 00:18:37
  TRACK 15 AUDIO
    TITLE "18:cjc019_4536"
    INDEX 01 00:19:15
  TRACK 16 AUDIO
    TITLE "0:"
    INDEX 01 00:21:72
  TRACK 17 AUDIO
    TITLE "17:cjc019_4537"
    INDEX 01 00:22:48
  TRACK 18 AUDIO
    TITLE "0:"
    INDEX 01 00:24:16
  TRACK 19 AUDIO
    TITLE "16:cjc019_4538"
    INDEX 01 00:25:70
  TRACK 20 AUDIO
    TITLE "0:"
    INDEX 01 00:27:16
  TRACK 21 AUDIO
    TITLE "18:cjc019_4539"
    INDEX 01 00:27:65
  TRACK 22 AUDIO
    TITLE "0:"
    INDEX 01 00:29:50
  TRACK 23 AUDIO
    TITLE "17:cjc019_4540"
    INDEX 01 00:30:24
  TRACK 24 AUDIO
    TITLE "0:"
    INDEX 01 00:31:45
  TRACK 25 AUDIO
    TITLE "16:cjc019_4541"
    INDEX 01 00:33:21
  TRACK 26 AUDIO
    TITLE "0:"
    INDEX 01 00:34:26
  TRACK 27 AUDIO
    TITLE "18:cjc019_4542"
    INDEX 01 00:35:12
  TRACK 28 AUDIO
    TITLE "0:"
    INDEX 01 00:37:69
  TRACK 29 AUDIO
    TITLE "17:cjc019_4543"
    INDEX 01 00:38:45
  TRACK 30 AUDIO
    TITLE "0:"
    INDEX 01 00:39:58
  TRACK 31 AUDIO
    TITLE "16:cjc019_4544"
    INDEX 01 00:41:36
  TRACK 32 AUDIO
    TITLE "0:"
    INDEX 01 00:42:57
  TRACK 33 AUDIO
    TITLE "18:cjc019_4545"
    INDEX 01 00:43:37
  TRACK 34 AUDIO
    TITLE "0:"
    INDEX 01 00:46:58
  TRACK 35 AUDIO
    TITLE "17:cjc019_4546"
    INDEX 01 00:47:32
  TRACK 36 AUDIO
    TITLE "0:"
    INDEX 01 00:48:59
  TRACK 37 AUDIO
    TITLE "16:cjc019_4547"
    INDEX 01 00:50:37
  TRACK 38 AUDIO
    TITLE "0:"
    INDEX 01 00:51:50
  TRACK 39 AUDIO
    TITLE "18:cjc019_4548"
    INDEX 01 00:52:30
  TRACK 40 AUDIO
    TITLE "0:"
    INDEX 01 00:55:46
  TRACK 41 AUDIO
    TITLE "17:cjc019_4549"
    INDEX 01 00:56:27
  TRACK 42 AUDIO
    TITLE "0:"
    INDEX 01 00:57:45
  TRACK 43 AUDIO
    TITLE "16:cjc019_4550"
    INDEX 01 00:59:24
  TRACK 44 AUDIO
    TITLE "0:"
    INDEX 01 01:00:33
  TRACK 45 AUDIO
    TITLE "18:cjc019_4551"
    INDEX 01 01:01:05
  TRACK 46 AUDIO
    TITLE "0:"
    INDEX 01 01:04:27
  TRACK 47 AUDIO
    TITLE "17:cjc019_4552"
    INDEX 01 01:05:01
  TRACK 48 AUDIO
    TITLE "0:"
    INDEX 01 01:06:08
  TRACK 49 AUDIO
    TITLE "16:cjc019_4553"
    INDEX 01 01:07:63
  TRACK 50 AUDIO
    TITLE "0:"
    INDEX 01 01:09:12
  TRACK 51 AUDIO
    TITLE "18:cjc019_4554"
    INDEX 01 01:09:67
  TRACK 52 AUDIO
    TITLE "0:"
    INDEX 01 01:13:14
  TRACK 53 AUDIO
    TITLE "17:cjc019_4555"
    INDEX 01 01:13:67
  TRACK 54 AUDIO
    TITLE "0:"
    INDEX 01 01:15:13
  TRACK 55 AUDIO
    TITLE "16:cjc019_4556"
    INDEX 01 01:16:69
  TRACK 56 AUDIO
    TITLE "0:"
    INDEX 01 01:18:11
  TRACK 57 AUDIO
    TITLE "18:cjc019_4557"
    INDEX 01 01:18:66
  TRACK 58 AUDIO
    TITLE "0:"
    INDEX 01 01:20:16
  TRACK 59 AUDIO
    TITLE "17:cjc019_4558"
    INDEX 01 01:20:65
  TRACK 60 AUDIO
    TITLE "0:"
    INDEX 01 01:22:13
  TRACK 61 AUDIO
    TITLE "16:cjc019_4559"
    INDEX 01 01:23:67
  TRACK 62 AUDIO
    TITLE "0:"
    INDEX 01 01:25:08
  TRACK 63 AUDIO
    TITLE "18:cjc019_4560"
    INDEX 01 01:25:58
  TRACK 64 AUDIO
    TITLE "0:"
    INDEX 01 01:28:55
  TRACK 65 AUDIO
    TITLE "17:cjc019_4561"
    INDEX 01 01:29:31
  TRACK 66 AUDIO
    TITLE "0:"
    INDEX 01 01:30:48
  TRACK 67 AUDIO
    TITLE "16:cjc019_4562"
    INDEX 01 01:32:27
  TRACK 68 AUDIO
    TITLE "0:"
    INDEX 01 01:33:48
  TRACK 69 AUDIO
    TITLE "18:cjc019_4563"
    INDEX 01 01:34:26
  TRACK 70 AUDIO
    TITLE "0:"
    INDEX 01 01:35:73
  TRACK 71 AUDIO
    TITLE "17:cjc019_4564"
    INDEX 01 01:36:45
  TRACK 72 AUDIO
    TITLE "0:"
    INDEX 01 01:37:64
  TRACK 73 AUDIO
    TITLE "16:cjc019_4565"
    INDEX 01 01:39:43
  TRACK 74 AUDIO
    TITLE "0:"
    INDEX 01 01:40:50
  TRACK 75 AUDIO
    TITLE "18:cjc019_4566"
    INDEX 01 01:41:24
  TRACK 76 AUDIO
    TITLE "0:"
    INDEX 01 01:42:69
  TRACK 77 AUDIO
    TITLE "17:cjc019_4567"
    INDEX 01 01:43:47
  TRACK 78 AUDIO
    TITLE "0:"
    INDEX 01 01:44:56
  TRACK 79 AUDIO
    TITLE "16:cjc019_4568"
    INDEX 01 01:46:35
  TRACK 80 AUDIO
    TITLE "0:"
    INDEX 01 01:47:48
  TRACK 81 AUDIO
    TITLE "18:cjc019_4569"
    INDEX 01 01:48:28
  TRACK 82 AUDIO
    TITLE "0:"
    INDEX 01 01:51:42
  TRACK 83 AUDIO
    TITLE "17:cjc019_4570"
    INDEX 01 01:52:18
  TRACK 84 AUDIO
    TITLE "0:"
    INDEX 01 01:53:33
  TRACK 85 AUDIO
    TITLE "16:cjc019_4571"
    INDEX 01 01:55:13
  TRACK 86 AUDIO
    TITLE "0:"
    INDEX 01 01:56:30
  TRACK 87 AUDIO
    TITLE "18:cjc019_4572"
    INDEX 01 01:57:09
  TRACK 88 AUDIO
    TITLE "0:"
    INDEX 01 01:59:18
  TRACK 89 AUDIO
    TITLE "17:cjc019_4573"
    INDEX 01 02:00:02
  TRACK 90 AUDIO
    TITLE "0:"
    INDEX 01 02:01:21
  TRACK 91 AUDIO
    TITLE "16:cjc019_4574"
    INDEX 01 02:02:71
  TRACK 92 AUDIO
    TITLE "0:"
    INDEX 01 02:04:29
  TRACK 93 AUDIO
    TITLE "18:cjc019_4575"
    INDEX 01 02:05:01
  TRACK 94 AUDIO
    TITLE "0:"
    INDEX 01 02:08:25
  TRACK 95 AUDIO
    TITLE "17:cjc019_4576"
    INDEX 01 02:08:72
  TRACK 96 AUDIO
    TITLE "0:"
    INDEX 01 02:10:32
  TRACK 97 AUDIO
    TITLE "16:cjc019_4577"
    INDEX 01 02:12:11
  TRACK 98 AUDIO
    TITLE "0:"
    INDEX 01 02:13:22
  TRACK 99 AUDIO
    TITLE "18:cjc019_4578"
    INDEX 01 02:14:00
  TRACK 100 AUDIO
    TITLE "0:"
    INDEX 01 02:15:27
  TRACK 101 AUDIO
    TITLE "17:cjc019_4579"
    INDEX 01 02:16:01
  TRACK 102 AUDIO
    TITLE "0:"
    INDEX 01 02:17:16
  TRACK 103 AUDIO
    TITLE "16:cjc019_4580"
    INDEX 01 02:18:66
  TRACK 104 AUDIO
    TITLE "0:"
    INDEX 01 02:20:09
  TRACK 105 AUDIO
    TITLE "18:cjc019_4581"
    INDEX 01 02:20:61
  TRACK 106 AUDIO
    TITLE "0:"
    INDEX 01 02:22:29
  TRACK 107 AUDIO
    TITLE "17:cjc019_4582"
    INDEX 01 02:23:09
  TRACK 108 AUDIO
    TITLE "0:"
    INDEX 01 02:24:28
